# xmcd CD database file
#
# Track frame offsets:
#	150
#	10797
#	24341
#	39231
#	51749
#	65152
#	79443
#	92527
#	104614
#	116197
#	131005
#	145429
#	158207
#	170499
#
# Disc length: 2452 seconds
#
# Revision: 0
# Processed by: cddbd v1.5.2PL0 Copyright (c) Steve Scherf et al.
# Submitted via: CDex 1.51
#
DISCID=c809920e
DTITLE=Frank Sinatra - The Best Collection
DYEAR=2014
DGENRE=Jazz
TTITLE0=Night and Day
TTITLE1=One for My Baby
TTITLE2=Stella by Starlight
TTITLE3=All of Me
TTITLE4=From Here to Eternity
TTITLE5=Laura
TTITLE6=Beguin The Begine
TTITLE7=April in Paris
TTITLE8=My Funny Valentine
TTITLE9=Just One of These Things
TTITLE10=Autumm in New York
TTITLE11=South of The Border
TTITLE12=Almost Like Being in Love
TTITLE13=All The Things You Are
EXTD=YEAR: 2014
EXTT0=
EXTT1=
EXTT2=
EXTT3=
EXTT4=
EXTT5=
EXTT6=
EXTT7=
EXTT8=
EXTT9=
EXTT10=
EXTT11=
EXTT12=
EXTT13=
PLAYORDER=
